<svg xmlns="http://www.w3.org/2000/svg" width="56" height="56" viewBox="0 0 56 56" fill="none">
  <rect width="56" height="56" rx="12" fill="#eff6ff"/>
  <path d="M23 37V29C23 27.895 22.105 27 21 27H19C17.895 27 17 27.895 17 29V37C17 38.105 17.895 39 19 39H21C22.105 39 23 38.105 23 37ZM23 37V23C23 21.895 23.895 21 25 21H27C28.105 21 29 21.895 29 23V37M23 37C23 38.105 23.895 39 25 39H27C28.105 39 29 38.105 29 37M29 37V19C29 17.895 29.895 17 31 17H33C34.105 17 35 17.895 35 19V37C35 38.105 34.105 39 33 39H31C29.895 39 29 38.105 29 37Z" stroke="#2563eb" stroke-width="2" stroke-linecap="round" stroke-linejoin="round"/>
</svg>
