<svg xmlns="http://www.w3.org/2000/svg" width="56" height="56" viewBox="0 0 56 56" fill="none">
  <rect width="56" height="56" rx="12" fill="#eff6ff"/>
  <path d="M25 28L27 30L31 26M36.618 21.984C35.1643 22.1203 33.7039 21.8545 32.3901 21.2148C31.0763 20.575 29.9568 19.5847 29.16 18.35C29.0625 18.2065 28.9317 18.0883 28.7786 18.0058C28.6256 17.9232 28.4548 17.8788 28.281 17.876H27.719C27.5452 17.8788 27.3744 17.9232 27.2214 18.0058C27.0683 18.0883 26.9375 18.2065 26.84 18.35C26.0432 19.5847 24.9237 20.575 23.6099 21.2148C22.2961 21.8545 20.8357 22.1203 19.382 21.984C19.1359 21.9591 18.8884 22.0145 18.6757 22.1421C18.463 22.2697 18.2965 22.4627 18.201 22.693C17.7428 23.8107 17.506 25.0015 17.503 26.204C17.503 32.878 22.463 37.524 27.381 39.406C27.5785 39.4813 27.7882 39.52 28 39.52C28.2118 39.52 28.4215 39.4813 28.619 39.406C33.539 37.523 38.497 32.878 38.497 26.203C38.494 25.0005 38.2572 23.8097 37.799 22.692C37.7035 22.4617 37.537 22.2687 37.3243 22.1411C37.1116 22.0135 36.8641 21.9581 36.618 21.983V21.984Z" stroke="#2563eb" stroke-width="2" stroke-linecap="round" stroke-linejoin="round"/>
</svg>
